<?xml version="1.0" encoding="UTF-8" standalone="no"?> <!-- Created with Vectornator for iOS (http://vectornator.io/) --><!DOCTYPE svg PUBLIC "-//W3C//DTD SVG 1.1//EN" "http://www.w3.org/Graphics/SVG/1.1/DTD/svg11.dtd">
<svg height="100%" style="fill-rule:nonzero;clip-rule:evenodd;stroke-linecap:round;stroke-linejoin:round;" xmlns:xlink="http://www.w3.org/1999/xlink" xmlns="http://www.w3.org/2000/svg" xml:space="preserve" width="100%" xmlns:vectornator="http://vectornator.io" version="1.1" viewBox="0 0 265 78">
<metadata>
<vectornator:setting key="RulersVisible" value="1"/>
<vectornator:setting key="IsolateActiveLayer" value="0"/>
<vectornator:setting key="TimeLapseWatermarkDisabled" value="0"/>
<vectornator:setting key="SnapToGuides" value="1"/>
<vectornator:setting key="PencilOnly" value="0"/>
<vectornator:setting key="GuidesVisible" value="1"/>
<vectornator:setting key="DynamicGuides" value="0"/>
<vectornator:setting key="SnapToEdges" value="0"/>
<vectornator:setting key="DimensionsVisible" value="1"/>
<vectornator:setting key="OutlineMode" value="0"/>
<vectornator:setting key="DisplayWhiteBackground" value="0"/>
<vectornator:setting key="CMYKEnabledKey" value="0"/>
<vectornator:setting key="SnapToPoints" value="0"/>
<vectornator:setting key="SnapToGrid" value="0"/>
<vectornator:setting key="Units" value="Points"/>
<vectornator:setting key="doHistoryDisabled" value="0"/>
</metadata>
<defs/>
<g id="Untitled" vectornator:layerName="Untitled">
<path d="M158.478+60.0953C154.291+60.0953+150.599+59.1841+147.4+57.3615C144.235+55.5819+141.622+52.9723+139.847+49.8177C138.013+46.611+137.096+42.9288+137.096+38.7711C137.096+34.5648+138.013+30.8582+139.847+27.6515C141.624+24.4986+144.236+21.8896+147.4+20.1077C150.601+18.2852+154.294+17.3739+158.478+17.3739C162.605+17.3739+166.271+18.2852+169.475+20.1077C172.637+21.8907+175.249+24.4994+177.027+27.6515C178.861+30.8582+179.779+34.5648+179.779+38.7711C179.779+42.9314+178.876+46.6136+177.07+49.8177C175.316+52.9752+172.715+55.5868+169.556+57.3615C166.352+59.1841+162.659+60.0953+158.478+60.0953ZM158.478+53.1744C160.978+53.2222+163.443+52.5836+165.601+51.3288C167.654+50.1113+169.329+48.3552+170.442+46.2534C171.642+43.9485+172.242+41.3813+172.187+38.7865C172.243+36.1721+171.643+33.5849+170.442+31.2581C169.339+29.137+167.663+27.3634+165.601+26.1366C163.424+24.9263+160.971+24.2908+158.476+24.2908C155.981+24.2908+153.528+24.9263+151.351+26.1366C149.283+27.3693+147.595+29.1403+146.468+31.2581C145.249+33.57+144.636+36.1501+144.688+38.7596C144.632+41.3585+145.245+43.9285+146.468+46.2265C147.604+48.3277+149.291+50.0842+151.351+51.3096C153.508+52.5723+155.975+53.2177+158.478+53.1744Z" opacity="1" fill="#282828"/>
<path d="M201.153+60.0953C196.969+60.0953+193.276+59.1841+190.075+57.3615C186.909+55.5819+184.297+52.9723+182.522+49.8177C180.688+46.611+179.771+42.9288+179.771+38.7711C179.771+34.5648+180.688+30.8582+182.522+27.6515C184.296+24.5001+186.904+21.8913+190.063+20.1077C193.262+18.2852+196.954+17.3739+201.141+17.3739C205.268+17.3739+208.934+18.2852+212.138+20.1077C215.301+21.8907+217.913+24.4994+219.691+27.6515C221.52+30.8582+222.434+34.5648+222.434+38.7711C222.434+42.9314+221.531+46.6136+219.725+49.8177C217.972+52.9752+215.371+55.5868+212.211+57.3615C209.015+59.1841+205.329+60.0953+201.153+60.0953ZM201.153+53.1744C203.653+53.2222+206.118+52.5836+208.276+51.3288C210.324+50.1088+211.996+48.3532+213.109+46.2534C214.306+43.9476+214.905+41.3808+214.85+38.7865C214.905+36.1726+214.307+33.5859+213.109+31.2581C212.003+29.1377+210.326+27.3645+208.265+26.1366C206.087+24.9263+203.634+24.2908+201.139+24.2908C198.644+24.2908+196.191+24.9263+194.014+26.1366C191.947+27.3683+190.259+29.1397+189.135+31.2581C187.913+33.569+187.299+36.1496+187.351+38.7596C187.29+41.3681+187.904+43.9485+189.135+46.2534C190.268+48.3553+191.954+50.1121+194.014+51.3365C196.177+52.5915+198.648+53.2276+201.153+53.1744Z" opacity="1" fill="#282828"/>
<path d="M130.748+60.1183C128.476+60.1183+126.462+59.5025+124.706+58.2709C122.95+57.0393+121.581+55.3715+120.6+53.2675C119.619+51.1121+119.128+48.6489+119.128+45.8778L119.128+3.84881C119.128+2.71982+119.49+1.79611+120.213+1.07767C120.936+0.359222+121.865+0+123.002+0C124.138+0+125.067+0.359222+125.79+1.07767C126.513+1.79611+126.875+2.71982+126.875+3.84881L126.875+45.8778C126.875+47.7765+127.236+49.3417+127.959+50.5733C128.682+51.8049+129.612+52.4207+130.748+52.4207L132.685+52.4207C133.717+52.4207+134.544+52.78+135.163+53.4984C135.835+54.2168+136.17+55.1406+136.17+56.2695C136.17+57.3985+135.68+58.3222+134.699+59.0407C133.717+59.7591+132.452+60.1183+130.903+60.1183L130.748+60.1183Z" opacity="1" fill="#282828"/>
<path d="M262.168+27.8434C259.237+23.0108+254.524+19.506+249.031+18.0754C243.538+16.6449+237.701+17.4015+232.761+20.1842C229.592+22.0236+226.972+24.6669+225.17+27.8434C223.283+31.1797+222.295+34.9437+222.302+38.7708L222.302+73.8714C222.317+74.6496+222.56+75.4067+223.001+76.0499C223.442+76.693+224.063+77.1944+224.786+77.4927C225.51+77.791+226.305+77.8731+227.075+77.7292C227.844+77.5852+228.555+77.2213+229.12+76.6821C229.835+75.9392+230.224+74.9452+230.204+73.9176L229.902+39.286C229.902+39.1168+229.902+38.9476+229.902+38.7708C229.856+36.1859+230.469+33.6316+231.686+31.3462C232.825+29.216+234.525+27.4327+236.603+26.1862C238.738+24.9523+241.163+24.3022+243.632+24.3022C246.101+24.3022+248.526+24.9523+250.661+26.1862C252.728+27.4478+254.425+29.2273+255.583+31.3462C256.819+33.6253+257.445+36.1819+257.401+38.7708C257.44+41.3357+256.813+43.8674+255.583+46.1223C254.433+48.2404+252.742+50.0202+250.68+51.2823C248.556+52.5548+246.114+53.2077+243.634+53.1663C243.137+53.1674+242.639+53.143+242.144+53.0933C241.678+53.0492+241.208+53.1027+240.764+53.2502C240.32+53.3976+239.912+53.6358+239.566+53.9495C239.22+54.2631+238.944+54.6452+238.756+55.0712C238.567+55.4972+238.471+55.9577+238.472+56.423C238.469+57.1847+238.729+57.9244+239.208+58.5186C239.688+59.1128+240.358+59.5254+241.107+59.6874C242.443+59.9605+243.803+60.097+245.166+60.0949C248.754+60.1488+252.28+59.1728+255.323+57.2843C258.32+55.41+260.765+52.7807+262.408+49.6636C264.173+46.3045+265.063+42.5595+264.997+38.7708C265.054+34.9425+264.078+31.1689+262.168+27.8434Z" opacity="1" fill="#282828"/>
<path d="M36.2911+38.2379C36.2911+26.6907+46.6029+17.3298+59.3232+17.3298C72.0435+17.3298+82.3553+26.6907+82.3553+38.2379C82.3553+49.785+72.0435+59.1459+59.3232+59.1459C46.6029+59.1459+36.2911+49.785+36.2911+38.2379Z" opacity="1" fill="#07e185"/>
<path stroke="#282828" stroke-width="7.22072" d="M21.3011+20.94L62.4591+20.94C72.2295+20.94+80.1499+28.8604+80.1499+38.6308L80.1499+38.6307C80.1499+48.4011+72.2295+56.3215+62.4591+56.3215L21.3011+56.3215C11.5307+56.3215+3.6103+48.4011+3.6103+38.6307L3.6103+38.6308C3.6103+28.8604+11.5307+20.94+21.3011+20.94Z" fill="none" stroke-linecap="butt" opacity="1" stroke-linejoin="miter"/>
</g>
</svg>
